<svg xmlns="http://www.w3.org/2000/svg" width="24" height="24" viewBox="0 0 24 24" fill="none" stroke="currentColor" stroke-width="2" stroke-linecap="round" stroke-linejoin="round">
    <path d="M9.5 2A2.5 2.5 0 0 1 12 4.5v15a2.5 2.5 0 0 1-4.96.44l-2.02-5.85a1.5 1.5 0 0 0-2.92 0L.08 20.08a2.5 2.5 0 0 1-4.96-.44V4.5A2.5 2.5 0 0 1-2.5 2h12z"></path>
    <path d="M14.5 2A2.5 2.5 0 0 0 12 4.5v15a2.5 2.5 0 0 0 4.96.44l2.02-5.85a1.5 1.5 0 0 1 2.92 0l2.02 5.85a2.5 2.5 0 0 0 4.96-.44V4.5A2.5 2.5 0 0 0 26.5 2h-12z"></path>
</svg>